<svg width="20" height="20" viewBox="0 0 20 20" fill="none" xmlns="http://www.w3.org/2000/svg">
<path d="M10 0C4.486 0 0 4.486 0 10C0 15.514 4.486 20 10 20C15.514 20 20 15.514 20 10C20 4.486 15.514 0 10 0ZM10 2C13.213 2 15.982 3.908 17.254 6.648C16.9451 6.50179 16.6461 6.33543 16.359 6.15C15.95 5.892 15.486 5.599 14.899 5.378C14.23 5.123 13.499 5 12.665 5C11.831 5 11.1 5.123 10.431 5.377C9.844 5.6 9.38 5.893 8.959 6.158C8.581 6.395 8.256 6.601 7.856 6.752C7.41 6.921 6.926 7 6.33 7C5.735 7 5.251 6.921 4.806 6.752C4.406 6.601 4.078 6.394 3.7 6.154C3.539 6.053 3.36 5.946 3.18 5.841C4.587 3.542 7.113 2 10 2ZM10 18C5.589 18 2 14.411 2 10C2 9.19 2.123 8.41 2.348 7.673C2.442 7.731 2.533 7.783 2.631 7.846C3.042 8.106 3.507 8.4 4.097 8.622C4.766 8.877 5.496 9 6.33 9C7.163 9 7.894 8.877 8.565 8.623C9.152 8.4 9.616 8.107 10.037 7.842C10.415 7.605 10.74 7.399 11.14 7.247C11.585 7.079 12.069 7 12.665 7C13.261 7 13.745 7.079 14.19 7.248C14.589 7.398 14.915 7.604 15.304 7.85C15.713 8.108 16.177 8.401 16.764 8.623C17.127 8.761 17.512 8.852 17.917 8.914C17.966 9.271 18 9.631 18 10C18 14.411 14.411 18 10 18Z" fill="white"/>
<path d="M6.5 13C7.32843 13 8 12.3284 8 11.5C8 10.6716 7.32843 10 6.5 10C5.67157 10 5 10.6716 5 11.5C5 12.3284 5.67157 13 6.5 13Z" fill="white"/>
<path d="M13.5 13C14.3284 13 15 12.3284 15 11.5C15 10.6716 14.3284 10 13.5 10C12.6716 10 12 10.6716 12 11.5C12 12.3284 12.6716 13 13.5 13Z" fill="white"/>
</svg>
