<svg width="48" height="48" viewBox="0 0 48 48" fill="none" xmlns="http://www.w3.org/2000/svg">
<path d="M6 24L24 6L42 24" stroke="white" stroke-width="2" stroke-linecap="round" stroke-linejoin="round"/>
<path d="M11 28V41C11 41.2652 11.1054 41.5196 11.2929 41.7071C11.4804 41.8946 11.7348 42 12 42H19C19.2652 42 19.5196 41.8946 19.7071 41.7071C19.8946 41.5196 20 41.2652 20 41V34C20 33.4696 20.2107 32.9609 20.5858 32.5858C20.9609 32.2107 21.4696 32 22 32H26C26.5304 32 27.0391 32.2107 27.4142 32.5858C27.7893 32.9609 28 33.4696 28 34V41C28 41.2652 28.1054 41.5196 28.2929 41.7071C28.4804 41.8946 28.7348 42 29 42H36C36.2652 42 36.5196 41.8946 36.7071 41.7071C36.8946 41.5196 37 41.2652 37 41V28" stroke="white" stroke-width="2" stroke-linecap="round" stroke-linejoin="round"/>
</svg>
